<svg xmlns="http://www.w3.org/2000/svg" viewBox="0 0 64 64" width="64" height="64" role="img" aria-label="Sanz Klausenburg Fleish">
  <rect width="64" height="64" rx="14" fill="#fbf3e6"/>
  <g fill="#b07a1e">
    <!-- rooster -->
    <path d="M41 14c2.4 0 4.2 1.6 4.6 3.8 1.9-.6 3.9.2 4.8 2 .9 1.8.2 3.9-1.4 5 .5.9.7 2 .4 3.1-.6 2.4-3 3.8-5.4 3.3l-1.2-.3c.7 1.9.9 4 .4 6.1-1.2 5.4-6 9.2-11.5 9.2H22c-3 0-5.7-1.5-7.3-3.9-2.4.5-4.9-.6-6.1-2.8-1.4-2.6-.5-5.8 2-7.4-.3-3.6 1.7-7.1 5.2-8.7l9-4.1c1.8-2.3 4.6-3.6 7.6-3.6h.2c.7-1.3 2-2.1 3.6-2z"/>
  </g>
  <g fill="#d62828">
    <!-- comb + wattle -->
    <path d="M41 11.5c1 0 1.8.5 2.3 1.3.7-.7 1.8-.9 2.7-.4.9.5 1.3 1.5 1.1 2.5.9-.2 1.9.2 2.4 1.1.6 1 .3 2.2-.6 2.9-1.1-1.6-2.9-2.6-4.9-2.6-1.5 0-2.8.8-3.5 2-.3-.1-.6-.1-.9-.1.1-1 .3-1.9.7-2.7-.6-.3-1-.8-1.2-1.4.5-.2 1.1-.4 1.7-.4z"/>
    <circle cx="40" cy="26" r="1.6"/>
  </g>
</svg>
